<?xml version="1.0" encoding="UTF-8" standalone="no"?>
<svg
   xmlns:dc="http://purl.org/dc/elements/1.1/"
   xmlns:cc="http://creativecommons.org/ns#"
   xmlns:rdf="http://www.w3.org/1999/02/22-rdf-syntax-ns#"
   xmlns:svg="http://www.w3.org/2000/svg"
   xmlns="http://www.w3.org/2000/svg"
   viewBox="0 0 793.70135 1122.52"
   height="1122.52"
   width="793.70135"
   xml:space="preserve"
   id="svg2"
   version="1.1"><metadata
     id="metadata8"><rdf:RDF><cc:Work
         rdf:about=""><dc:format>image/svg+xml</dc:format><dc:type
           rdf:resource="http://purl.org/dc/dcmitype/StillImage" /></cc:Work></rdf:RDF></metadata><defs
     id="defs6"><clipPath
       id="clipPath20"
       clipPathUnits="userSpaceOnUse"><path
         id="path18"
         d="M 0,841.89 H 595.276 V 0 H 0 Z" /></clipPath></defs><g
     transform="matrix(1.3333333,0,0,-1.3333333,0,1122.52)"
     id="g10"><path
       id="path12"
       style="fill:#171e3c;fill-opacity:1;fill-rule:nonzero;stroke:none"
       d="m 393.32,126.25 h -64.518 v 64.518 h 64.518 z" /><g
       id="g14"><g
         clip-path="url(#clipPath20)"
         id="g16"><g
           transform="translate(241.4595,412.1029)"
           id="g22"><path
             id="path24"
             style="fill:#dc5429;fill-opacity:1;fill-rule:nonzero;stroke:none"
             d="m 0,0 c -7.139,-0.002 -10.929,5.591 -8.495,11.492 3.613,8.756 7.426,17.437 11.156,26.148 0.633,1.479 1.191,2.997 1.943,4.418 2.12,4.003 6.627,5.672 10.799,4.084 3.982,-1.516 6.232,-6.107 4.541,-10.209 C 15.623,25.44 11.132,15.01 6.583,4.606 5.246,1.547 2.53,0.108 0,0" /></g><g
           transform="translate(214.897,350.6049)"
           id="g26"><path
             id="path28"
             style="fill:#dc5429;fill-opacity:1;fill-rule:nonzero;stroke:none"
             d="m 0,0 c -7.139,-0.003 -10.929,5.591 -8.495,11.491 3.613,8.757 7.425,17.438 11.156,26.149 0.633,1.479 1.19,2.997 1.943,4.418 2.119,4.003 6.627,5.671 10.799,4.084 3.981,-1.516 6.231,-6.107 4.541,-10.209 C 15.623,25.44 11.131,15.011 6.583,4.605 5.246,1.547 2.53,0.108 0,0" /></g><g
           transform="translate(478.8281,749.4891)"
           id="g30"><path
             id="path32"
             style="fill:#171e3c;fill-opacity:1;fill-rule:nonzero;stroke:none"
             d="m 0,0 c -13,-30.948 -26.174,-61.819 -39.302,-92.7 -42.644,-100.328 -85.301,-200.656 -127.945,-300.985 -7.603,-17.874 -15.24,-35.726 -22.797,-53.622 -1.694,-4.009 -4.445,-6.604 -9.111,-6.581 -4.423,0.022 -7.057,2.461 -8.682,6.325 -6.582,15.68 -13.267,31.315 -19.918,46.962 -4.864,11.46 -9.704,22.919 -14.567,34.367 -0.348,0.802 -0.766,1.56 -1.382,2.818 l -4.596,11.204 c -2.797,6.592 -5.513,12.996 -8.229,19.41 -46.974,110.652 -93.96,221.315 -140.865,331.989 -0.87,2.06 -1.404,4.51 -1.149,6.682 0.406,3.563 3.819,6.125 7.51,6.448 3.714,0.323 7.103,-1.515 8.682,-5.034 2.379,-5.312 4.585,-10.702 6.86,-16.048 43.585,-102.667 87.181,-205.322 130.766,-307.989 0.348,-0.802 0.72,-1.593 1.347,-3.007 l 7.347,-17.507 c 12.187,-28.732 24.305,-57.263 36.701,-86.463 0.836,1.904 1.44,3.207 1.997,4.522 44.908,105.584 89.816,211.18 134.725,316.776 15.448,36.316 30.885,72.643 46.335,108.97 1.776,4.154 4.829,6.381 8.694,6.348 C -3.865,12.84 -0.197,10.668 0.58,7.183 1.08,4.911 0.905,2.138 0,0" /></g><g
           transform="translate(198.8687,623.4144)"
           id="g34"><path
             id="path36"
             style="fill:#171e3c;fill-opacity:1;fill-rule:nonzero;stroke:none"
             d="m 0,0 h 29.65 v -12.104 h -47.3 c 0.079,4.303 -0.471,8.288 2.035,12.377 10.149,16.567 19.937,33.338 29.764,50.085 0.814,1.387 1.237,3.148 1.291,4.753 0.165,4.876 0.06,9.761 0.06,14.806 H -2.405 V 52.646 h -14.389 c 0,1.9 -0.01,3.743 0.002,5.586 0.036,5.432 -0.096,10.872 0.176,16.292 0.245,4.878 2.564,7.244 7.699,7.348 10.57,0.215 21.153,0.171 31.725,-0.056 4.423,-0.095 6.882,-2.545 7.009,-6.805 C 30.032,67.809 30.204,60.57 29.665,53.397 29.43,50.279 27.754,47.09 26.11,44.268 18.016,30.374 9.71,16.593 1.487,2.769 1.042,2.021 0.663,1.239 0,0" /></g><g
           transform="translate(235.1479,628.7709)"
           id="g38"><path
             id="path40"
             style="fill:#171e3c;fill-opacity:1;fill-rule:nonzero;stroke:none"
             d="m 0,0 c 0.944,4.98 1.237,9.456 2.666,13.568 7.032,20.227 14.396,40.348 21.548,60.536 0.703,1.986 1.555,2.864 3.878,2.739 3.944,-0.214 7.909,-0.059 12.282,-0.059 C 32.629,55.111 25.025,33.833 17.348,12.349 h 15.625 v 28.068 h 14 V 12.349 h 7.458 V 0.187 h -7.263 v -17.6 H 33.17 V 0 Z" /></g><g
           transform="translate(372.0049,749.2089)"
           id="g42"><path
             id="path44"
             style="fill:#dc5429;fill-opacity:1;fill-rule:nonzero;stroke:none"
             d="m 0,0 c -7.986,0 -15.484,-0.027 -22.983,0.01 -4.268,0.021 -7.613,2.156 -8.708,5.425 -1.61,4.797 1.192,9.473 6.369,10.548 0.986,0.204 2.021,0.267 3.034,0.268 11.22,0.017 22.439,0.036 33.659,-0.001 7.72,-0.026 11.519,-5.369 8.639,-12.207 -4.092,-9.716 -8.267,-19.4 -12.437,-29.086 -1.99,-4.623 -6.564,-6.651 -11.028,-4.961 -4.46,1.689 -6.463,6.184 -4.595,10.789 2.149,5.296 4.493,10.518 6.738,15.778 C -0.897,-2.465 -0.557,-1.465 0,0" /></g><g
           transform="translate(158.0083,749.2089)"
           id="g46"><path
             id="path48"
             style="fill:#dc5429;fill-opacity:1;fill-rule:nonzero;stroke:none"
             d="m 0,0 c -5.375,0 -10.75,-0.032 -16.124,0.008 -5.448,0.041 -9.394,3.518 -9.38,8.182 0.013,4.499 3.907,8.007 9.263,8.045 11.027,0.079 22.055,0.087 33.082,-0.003 5.306,-0.043 9.174,-3.669 9.088,-8.181 C 25.842,3.455 22,0.065 16.681,0.012 11.121,-0.043 5.561,0 0,0" /></g><g
           transform="translate(227.0371,749.2089)"
           id="g50"><path
             id="path52"
             style="fill:#dc5429;fill-opacity:1;fill-rule:nonzero;stroke:none"
             d="m 0,0 c -5.375,0 -10.75,-0.034 -16.124,0.009 -5.326,0.044 -9.117,3.325 -9.316,7.97 -0.19,4.426 3.76,8.194 9.035,8.243 11.119,0.104 22.241,0.103 33.361,0.007 C 22.25,16.184 26.11,12.506 25.982,7.997 25.851,3.391 22.022,0.059 16.681,0.011 11.121,-0.039 5.561,0 0,0" /></g><g
           transform="translate(296.4014,749.2089)"
           id="g54"><path
             id="path56"
             style="fill:#dc5429;fill-opacity:1;fill-rule:nonzero;stroke:none"
             d="m 0,0 c -5.467,0 -10.935,-0.034 -16.402,0.009 -5.327,0.043 -9.117,3.324 -9.316,7.969 -0.191,4.427 3.76,8.195 9.034,8.244 11.12,0.104 22.241,0.103 33.361,0.007 5.295,-0.045 9.154,-3.722 9.026,-8.232 C 25.572,3.391 21.744,0.06 16.402,0.011 10.936,-0.039 5.468,0 0,0" /></g><g
           transform="translate(366.7725,695.2079)"
           id="g58"><path
             id="path60"
             style="fill:#dc5429;fill-opacity:1;fill-rule:nonzero;stroke:none"
             d="m 0,0 c -0.082,-0.335 -0.197,-1.416 -0.605,-2.382 -4.246,-10.045 -8.452,-20.106 -12.847,-30.09 -2.622,-5.955 -9.727,-7.354 -14.013,-2.893 -2.592,2.698 -2.904,5.764 -1.43,9.148 3.393,7.785 6.683,15.613 10.024,23.419 1.055,2.465 1.978,4.999 3.246,7.36 1.83,3.414 5.756,4.966 9.396,3.992 C -2.312,7.506 0.018,4.582 0,0" /></g><g
           transform="translate(340.5996,634.0721)"
           id="g62"><path
             id="path64"
             style="fill:#dc5429;fill-opacity:1;fill-rule:nonzero;stroke:none"
             d="m 0,0 c -0.112,-0.459 -0.238,-1.629 -0.681,-2.676 -4.244,-10.042 -8.5,-20.079 -12.845,-30.081 -1.586,-3.649 -4.937,-5.636 -8.438,-5.32 -3.877,0.349 -6.864,2.687 -7.621,6.318 -0.276,1.324 -0.226,2.918 0.288,4.154 4.394,10.557 8.841,21.096 13.465,31.562 1.67,3.78 5.681,5.377 9.694,4.396 C -2.578,7.482 -0.044,4.315 0,0" /></g><g
           transform="translate(267.6953,473.3475)"
           id="g66"><path
             id="path68"
             style="fill:#dc5429;fill-opacity:1;fill-rule:nonzero;stroke:none"
             d="m 0,0 c -7.139,-0.002 -10.929,5.591 -8.495,11.492 3.613,8.756 7.425,17.437 11.156,26.148 0.633,1.479 1.19,2.997 1.943,4.418 2.119,4.003 6.627,5.672 10.799,4.084 3.981,-1.517 6.231,-6.107 4.541,-10.209 C 15.622,25.44 11.131,15.01 6.583,4.606 5.246,1.547 2.53,0.108 0,0" /></g><g
           transform="translate(314.4004,572.6923)"
           id="g70"><path
             id="path72"
             style="fill:#dc5429;fill-opacity:1;fill-rule:nonzero;stroke:none"
             d="m 0,0 c -0.153,-0.561 -0.362,-1.891 -0.874,-3.104 -4.17,-9.873 -8.362,-19.737 -12.621,-29.575 -1.686,-3.895 -4.745,-5.582 -9.008,-5.229 -3.415,0.283 -6.368,2.662 -7.054,6.198 -0.305,1.568 -0.143,3.438 0.471,4.918 4.207,10.146 8.534,20.247 12.945,30.313 1.789,4.083 5.599,5.81 9.954,4.862 C -2.706,7.625 -0.054,4.355 0,0" /></g><g
           transform="translate(193.2134,301.6439)"
           id="g74"><path
             id="path76"
             style="fill:#dc5429;fill-opacity:1;fill-rule:nonzero;stroke:none"
             d="m 0,0 c -5.458,0.029 -9.643,4.807 -7.858,9.752 2.538,7.031 5.548,13.927 8.758,20.705 1.713,3.617 6.559,4.856 10.337,3.315 3.998,-1.63 6.221,-5.716 4.703,-9.609 C 13.348,17.518 10.5,10.96 7.578,4.439 6.208,1.383 3.501,-0.05 0,0" /></g><path
           id="path78"
           style="fill:#dc5429;fill-opacity:1;fill-rule:nonzero;stroke:none"
           d="m 393.32,209.356 h -64.518 v 64.518 h 64.518 z" /></g></g><text
       id="text84"
       style="font-variant:normal;font-weight:normal;font-stretch:normal;font-size:28px;font-family:'Arial Rounded MT Bold';-inkscape-font-specification:ArialRoundedMTBold;writing-mode:lr-tb;fill:#110f0d;fill-opacity:1;fill-rule:nonzero;stroke:none"
       transform="matrix(1,0,0,-1,414.4287,231.792)"><tspan
         id="tspan80"
         y="0"
         x="0 16.805599 34.809601 53.667599 71.6716 89.675598 107.6796">#cd6937</tspan><tspan
         id="tspan82"
         y="82.096001"
         x="0 16.9512 35.0952 53.239201 71.383202 89.527199 107.6712">#001944</tspan></text>
</g></svg>